<svg id="visual" viewBox="0 0 960 540" width="960" height="540" xmlns="http://www.w3.org/2000/svg" xmlns:xlink="http://www.w3.org/1999/xlink" version="1.1"><path d="M0 398L12.3 398.5C24.7 399 49.3 400 74 389.7C98.7 379.3 123.3 357.7 148 347.7C172.7 337.7 197.3 339.3 221.8 349.5C246.3 359.7 270.7 378.3 295.2 381.5C319.7 384.7 344.3 372.3 369 375C393.7 377.7 418.3 395.3 443 394.3C467.7 393.3 492.3 373.7 517 374C541.7 374.3 566.3 394.7 591 391.3C615.7 388 640.3 361 664.8 349.5C689.3 338 713.7 342 738.2 347.8C762.7 353.7 787.3 361.3 812 372.2C836.7 383 861.3 397 886 404C910.7 411 935.3 411 947.7 411L960 411L960 541L947.7 541C935.3 541 910.7 541 886 541C861.3 541 836.7 541 812 541C787.3 541 762.7 541 738.2 541C713.7 541 689.3 541 664.8 541C640.3 541 615.7 541 591 541C566.3 541 541.7 541 517 541C492.3 541 467.7 541 443 541C418.3 541 393.7 541 369 541C344.3 541 319.7 541 295.2 541C270.7 541 246.3 541 221.8 541C197.3 541 172.7 541 148 541C123.3 541 98.7 541 74 541C49.3 541 24.7 541 12.3 541L0 541Z" fill="#6951f6"></path><path d="M0 426L12.3 428.5C24.7 431 49.3 436 74 442C98.7 448 123.3 455 148 457.5C172.7 460 197.3 458 221.8 457C246.3 456 270.7 456 295.2 450.3C319.7 444.7 344.3 433.3 369 428.3C393.7 423.3 418.3 424.7 443 431.7C467.7 438.7 492.3 451.3 517 459.2C541.7 467 566.3 470 591 458.7C615.7 447.3 640.3 421.7 664.8 408.2C689.3 394.7 713.7 393.3 738.2 405.2C762.7 417 787.3 442 812 442.2C836.7 442.3 861.3 417.7 886 407.5C910.7 397.3 935.3 401.7 947.7 403.8L960 406L960 541L947.7 541C935.3 541 910.7 541 886 541C861.3 541 836.7 541 812 541C787.3 541 762.7 541 738.2 541C713.7 541 689.3 541 664.8 541C640.3 541 615.7 541 591 541C566.3 541 541.7 541 517 541C492.3 541 467.7 541 443 541C418.3 541 393.7 541 369 541C344.3 541 319.7 541 295.2 541C270.7 541 246.3 541 221.8 541C197.3 541 172.7 541 148 541C123.3 541 98.7 541 74 541C49.3 541 24.7 541 12.3 541L0 541Z" fill="#00acff"></path><path d="M0 469L12.3 473.2C24.7 477.3 49.3 485.7 74 484.8C98.7 484 123.3 474 148 479.8C172.7 485.7 197.3 507.3 221.8 505.2C246.3 503 270.7 477 295.2 477.2C319.7 477.3 344.3 503.7 369 501C393.7 498.3 418.3 466.7 443 463.2C467.7 459.7 492.3 484.3 517 498.8C541.7 513.3 566.3 517.7 591 516.5C615.7 515.3 640.3 508.7 664.8 503.2C689.3 497.7 713.7 493.3 738.2 493.7C762.7 494 787.3 499 812 501.3C836.7 503.7 861.3 503.3 886 492.5C910.7 481.7 935.3 460.3 947.7 449.7L960 439L960 541L947.7 541C935.3 541 910.7 541 886 541C861.3 541 836.7 541 812 541C787.3 541 762.7 541 738.2 541C713.7 541 689.3 541 664.8 541C640.3 541 615.7 541 591 541C566.3 541 541.7 541 517 541C492.3 541 467.7 541 443 541C418.3 541 393.7 541 369 541C344.3 541 319.7 541 295.2 541C270.7 541 246.3 541 221.8 541C197.3 541 172.7 541 148 541C123.3 541 98.7 541 74 541C49.3 541 24.7 541 12.3 541L0 541Z" fill="#a4e4f5"></path></svg>