<svg id="visual" viewBox="0 0 960 540" width="960" height="540" xmlns="http://www.w3.org/2000/svg" xmlns:xlink="http://www.w3.org/1999/xlink" version="1.1"><path d="M0 364L12.3 365C24.7 366 49.3 368 74 378.3C98.7 388.7 123.3 407.3 148 410.5C172.7 413.7 197.3 401.3 221.8 385C246.3 368.7 270.7 348.3 295.2 353.5C319.7 358.7 344.3 389.3 369 399.2C393.7 409 418.3 398 443 386.8C467.7 375.7 492.3 364.3 517 362C541.7 359.7 566.3 366.3 591 365C615.7 363.7 640.3 354.3 664.8 347.3C689.3 340.3 713.7 335.7 738.2 334.2C762.7 332.7 787.3 334.3 812 350.2C836.7 366 861.3 396 886 400.7C910.7 405.3 935.3 384.7 947.7 374.3L960 364L960 541L947.7 541C935.3 541 910.7 541 886 541C861.3 541 836.7 541 812 541C787.3 541 762.7 541 738.2 541C713.7 541 689.3 541 664.8 541C640.3 541 615.7 541 591 541C566.3 541 541.7 541 517 541C492.3 541 467.7 541 443 541C418.3 541 393.7 541 369 541C344.3 541 319.7 541 295.2 541C270.7 541 246.3 541 221.8 541C197.3 541 172.7 541 148 541C123.3 541 98.7 541 74 541C49.3 541 24.7 541 12.3 541L0 541Z" fill="#6951f6"></path><path d="M0 426L12.3 419.8C24.7 413.7 49.3 401.3 74 405C98.7 408.7 123.3 428.3 148 429.7C172.7 431 197.3 414 221.8 409.3C246.3 404.7 270.7 412.3 295.2 419.8C319.7 427.3 344.3 434.7 369 433C393.7 431.3 418.3 420.7 443 415.2C467.7 409.7 492.3 409.3 517 405.8C541.7 402.3 566.3 395.7 591 400.8C615.7 406 640.3 423 664.8 436.5C689.3 450 713.7 460 738.2 457.5C762.7 455 787.3 440 812 429.7C836.7 419.3 861.3 413.7 886 421.7C910.7 429.7 935.3 451.3 947.7 462.2L960 473L960 541L947.7 541C935.3 541 910.7 541 886 541C861.3 541 836.7 541 812 541C787.3 541 762.7 541 738.2 541C713.7 541 689.3 541 664.8 541C640.3 541 615.7 541 591 541C566.3 541 541.7 541 517 541C492.3 541 467.7 541 443 541C418.3 541 393.7 541 369 541C344.3 541 319.7 541 295.2 541C270.7 541 246.3 541 221.8 541C197.3 541 172.7 541 148 541C123.3 541 98.7 541 74 541C49.3 541 24.7 541 12.3 541L0 541Z" fill="#00acff"></path><path d="M0 440L12.3 448.2C24.7 456.3 49.3 472.7 74 482.2C98.7 491.7 123.3 494.3 148 494.3C172.7 494.3 197.3 491.7 221.8 493.7C246.3 495.7 270.7 502.3 295.2 496.5C319.7 490.7 344.3 472.3 369 468.5C393.7 464.7 418.3 475.3 443 473.8C467.7 472.3 492.3 458.7 517 452C541.7 445.3 566.3 445.7 591 457.7C615.7 469.7 640.3 493.3 664.8 505.2C689.3 517 713.7 517 738.2 520.3C762.7 523.7 787.3 530.3 812 528.2C836.7 526 861.3 515 886 501.2C910.7 487.3 935.3 470.7 947.7 462.3L960 454L960 541L947.7 541C935.3 541 910.7 541 886 541C861.3 541 836.7 541 812 541C787.3 541 762.7 541 738.2 541C713.7 541 689.3 541 664.8 541C640.3 541 615.7 541 591 541C566.3 541 541.7 541 517 541C492.3 541 467.7 541 443 541C418.3 541 393.7 541 369 541C344.3 541 319.7 541 295.2 541C270.7 541 246.3 541 221.8 541C197.3 541 172.7 541 148 541C123.3 541 98.7 541 74 541C49.3 541 24.7 541 12.3 541L0 541Z" fill="#a4e4f5"></path></svg>