<?xml version="1.0" encoding="UTF-8" standalone="no"?>
<svg
   id="visual"
   viewBox="0 0 960 269.7489"
   version="1.1"
   xmlns="http://www.w3.org/2000/svg"
   xmlns:svg="http://www.w3.org/2000/svg">
  <defs
     id="defs3" />
  <path
     d="m 0,92.748909 12.3,1 c 12.4,1 37,3 61.7,13.300001 24.7,10.4 49.3,29 74,32.2 24.7,3.2 49.3,-9.2 73.8,-25.5 24.5,-16.300001 48.9,-36.700001 73.4,-31.500001 24.5,5.2 49.1,35.800001 73.8,45.700001 24.7,9.8 49.3,-1.2 74,-12.4 24.7,-11.1 49.3,-22.500001 74,-24.800001 24.7,-2.3 49.3,4.3 74,3 24.7,-1.3 49.3,-10.7 73.8,-17.7 24.5,-7 48.9,-11.6 73.4,-13.1 24.5,-1.5 49.1,0.1 73.8,16 24.7,15.8 49.3,45.800001 74,50.500001 24.7,4.6 49.3,-16 61.7,-26.4 L 960,92.748909 V 269.74891 h -12.3 c -12.4,0 -37,0 -61.7,0 -24.7,0 -49.3,0 -74,0 -24.7,0 -49.3,0 -73.8,0 -24.5,0 -48.9,0 -73.4,0 -24.5,0 -49.1,0 -73.8,0 -24.7,0 -49.3,0 -74,0 -24.7,0 -49.3,0 -74,0 -24.7,0 -49.3,0 -74,0 -24.7,0 -49.3,0 -73.8,0 -24.5,0 -48.9,0 -73.4,0 -24.5,0 -49.1,0 -73.8,0 -24.7,0 -49.3,0 -74,0 -24.7,0 -49.3,0 -61.7,0 H 0 Z"
     fill="#6951f6"
     id="path1" />
  <path
     d="m 0,154.74891 12.3,-6.2 c 12.4,-6.1 37,-18.5 61.7,-14.8 24.7,3.7 49.3,23.3 74,24.7 24.7,1.3 49.3,-15.7 73.8,-20.4 24.5,-4.6 48.9,3 73.4,10.5 24.5,7.5 49.1,14.9 73.8,13.2 24.7,-1.7 49.3,-12.3 74,-17.8 24.7,-5.5 49.3,-5.9 74,-9.4 24.7,-3.5 49.3,-10.1 74,-5 24.7,5.2 49.3,22.2 73.8,35.7 24.5,13.5 48.9,23.5 73.4,21 24.5,-2.5 49.1,-17.5 73.8,-27.8 24.7,-10.4 49.3,-16 74,-8 24.7,8 49.3,29.6 61.7,40.5 l 12.3,10.8 v 68 h -12.3 c -12.4,0 -37,0 -61.7,0 -24.7,0 -49.3,0 -74,0 -24.7,0 -49.3,0 -73.8,0 -24.5,0 -48.9,0 -73.4,0 -24.5,0 -49.1,0 -73.8,0 -24.7,0 -49.3,0 -74,0 -24.7,0 -49.3,0 -74,0 -24.7,0 -49.3,0 -74,0 -24.7,0 -49.3,0 -73.8,0 -24.5,0 -48.9,0 -73.4,0 -24.5,0 -49.1,0 -73.8,0 -24.7,0 -49.3,0 -74,0 -24.7,0 -49.3,0 -61.7,0 H 0 Z"
     fill="#00acff"
     id="path2" />
  <path
     d="m 0,168.74891 12.3,8.2 c 12.4,8.1 37,24.5 61.7,34 24.7,9.5 49.3,12.1 74,12.1 24.7,0 49.3,-2.6 73.8,-0.6 24.5,2 48.9,8.6 73.4,2.8 24.5,-5.8 49.1,-24.2 73.8,-28 24.7,-3.8 49.3,6.8 74,5.3 24.7,-1.5 49.3,-15.1 74,-21.8 24.7,-6.7 49.3,-6.3 74,5.7 24.7,12 49.3,35.6 73.8,47.5 24.5,11.8 48.9,11.8 73.4,15.1 24.5,3.4 49.1,10 73.8,7.9 24.7,-2.2 49.3,-13.2 74,-27 24.7,-13.9 49.3,-30.5 61.7,-38.9 l 12.3,-8.3 v 87 h -12.3 c -12.4,0 -37,0 -61.7,0 -24.7,0 -49.3,0 -74,0 -24.7,0 -49.3,0 -73.8,0 -24.5,0 -48.9,0 -73.4,0 -24.5,0 -49.1,0 -73.8,0 -24.7,0 -49.3,0 -74,0 -24.7,0 -49.3,0 -74,0 -24.7,0 -49.3,0 -74,0 -24.7,0 -49.3,0 -73.8,0 -24.5,0 -48.9,0 -73.4,0 -24.5,0 -49.1,0 -73.8,0 -24.7,0 -49.3,0 -74,0 -24.7,0 -49.3,0 -61.7,0 H 0 Z"
     fill="#a4e4f5"
     id="path3" />
</svg>
